<?xml version="1.0" encoding="UTF-8"?>
<!DOCTYPE svg PUBLIC "-//W3C//DTD SVG 1.1//EN" "http://www.w3.org/Graphics/SVG/1.1/DTD/svg11.dtd">
<svg xmlns="http://www.w3.org/2000/svg" version="1.1" width="200px" height="200px" style="shape-rendering:geometricPrecision; text-rendering:geometricPrecision; image-rendering:optimizeQuality; fill-rule:evenodd; clip-rule:evenodd" xmlns:xlink="http://www.w3.org/1999/xlink">
<g><path style="opacity:1" fill="#fdfdfd" d="M -0.5,-0.5 C 66.1667,-0.5 132.833,-0.5 199.5,-0.5C 199.5,66.1667 199.5,132.833 199.5,199.5C 132.833,199.5 66.1667,199.5 -0.5,199.5C -0.5,132.833 -0.5,66.1667 -0.5,-0.5 Z"/></g>
<g><path style="opacity:1" fill="#e66461" d="M 105.5,20.5 C 101.852,17.8581 98.1849,15.1914 94.5,12.5C 94.5,11.8333 94.1667,11.5 93.5,11.5C 93.7828,10.7109 94.2828,10.0442 95,9.5C 98.7039,13.0357 102.204,16.7024 105.5,20.5 Z"/></g>
<g><path style="opacity:1" fill="#eb3134" d="M 93.5,11.5 C 94.1667,11.5 94.5,11.8333 94.5,12.5C 93.0665,13.8333 91.7332,15.3333 90.5,17C 89.5,17.6667 88.5,17.6667 87.5,17C 89.3702,14.9604 91.3702,13.1271 93.5,11.5 Z"/></g>
<g><path style="opacity:1" fill="#f2272b" d="M 83.5,23.5 C 82.8333,23.5 82.5,23.1667 82.5,22.5C 83.8846,21.4264 85.0513,20.0931 86,18.5C 86.747,20.9278 85.9137,22.5944 83.5,23.5 Z"/></g>
<g><path style="opacity:1" fill="#e77673" d="M 105.5,20.5 C 107.633,22.0905 109.299,24.0905 110.5,26.5C 107.379,25.7124 105.712,23.7124 105.5,20.5 Z"/></g>
<g><path style="opacity:1" fill="#e56564" d="M 82.5,22.5 C 82.5,23.1667 82.8333,23.5 83.5,23.5C 82.3199,25.0145 81.3199,26.6812 80.5,28.5C 79.914,28.2907 79.414,27.9574 79,27.5C 77.9681,29.0267 76.8014,30.36 75.5,31.5C 75.5,30.8333 75.1667,30.5 74.5,30.5C 76.8062,27.5271 79.4728,24.8605 82.5,22.5 Z"/></g>
<g><path style="opacity:1" fill="#f02d31" d="M 74.5,30.5 C 75.1667,30.5 75.5,30.8333 75.5,31.5C 73.4309,34.5725 70.7642,36.9059 67.5,38.5C 69.8333,35.8333 72.1667,33.1667 74.5,30.5 Z"/></g>
<g><path style="opacity:1" fill="#efd2d2" d="M 110.5,26.5 C 114.808,30.9598 119.641,34.9598 125,38.5C 125.749,39.635 125.583,40.635 124.5,41.5C 123.479,39.3811 121.979,37.7144 120,36.5C 119.667,36.8333 119.333,37.1667 119,37.5C 116.642,33.442 113.808,29.7754 110.5,26.5 Z"/></g>
<g><path style="opacity:1" fill="#141414" d="M 92.5,39.5 C 98.1095,39.2645 101.61,41.9311 103,47.5C 103.499,51.8206 103.666,56.1539 103.5,60.5C 101.549,60.7733 100.049,60.1066 99,58.5C 96.542,54.5514 97.042,51.0514 100.5,48C 99.2018,44.7948 96.8684,43.7948 93.5,45C 87.1343,49.0493 83.6343,54.8826 83,62.5C 81.9393,68.7243 82.6059,74.7243 85,80.5C 90.9619,85.6597 97.1286,85.8264 103.5,81C 106.4,78.6032 108.733,75.7698 110.5,72.5C 110.833,72.8333 111.167,73.1667 111.5,73.5C 105.944,84.1105 97.2775,88.6105 85.5,87C 81.8345,85.332 79.6678,82.4987 79,78.5C 78.0843,65.8295 81.0843,54.1629 88,43.5C 89.6667,42.2668 91.1667,40.9335 92.5,39.5 Z"/></g>
<g><path style="opacity:1" fill="#eb3838" d="M 67.5,38.5 C 60.343,47.4229 52.6763,55.9229 44.5,64C 61.4145,80.9145 78.2478,97.7478 95,114.5C 101.383,108.945 107.55,103.279 113.5,97.5C 107.913,104.757 101.579,111.424 94.5,117.5C 77.4868,99.9869 60.3201,82.6536 43,65.5C 42.3333,64.5 42.3333,63.5 43,62.5C 50.9815,54.3523 59.1482,46.3523 67.5,38.5 Z"/></g>
<g><path style="opacity:1" fill="#eb3a3c" d="M 113.5,97.5 C 123.227,85.2635 134.227,74.7635 146.5,66C 135.913,77.0902 124.913,87.5902 113.5,97.5 Z"/></g>
<g><path style="opacity:1" fill="#252525" d="M 67.5,145.5 C 70.5644,145.603 71.5644,146.936 70.5,149.5C 68.7118,148.717 67.7118,147.384 67.5,145.5 Z"/></g>
<g><path style="opacity:1" fill="#1f1f1f" d="M 61.5,165.5 C 55.303,172.048 49.1364,172.048 43,165.5C 41.3533,154.586 43.8533,144.753 50.5,136C 55.3041,133.293 58.8041,134.46 61,139.5C 61.4983,142.817 61.665,146.15 61.5,149.5C 60.1667,149.5 58.8333,149.5 57.5,149.5C 57.6427,147.738 57.3094,146.071 56.5,144.5C 57.9294,142.669 58.4294,140.669 58,138.5C 54.9074,137.106 52.2408,137.773 50,140.5C 45.7841,146.881 44.4508,153.881 46,161.5C 46.3459,163.848 47.5125,165.681 49.5,167C 53.6895,167.81 57.6895,167.31 61.5,165.5 Z"/></g>
<g><path style="opacity:1" fill="#898989" d="M 136.5,146.5 C 136.205,148.735 136.539,150.735 137.5,152.5C 137.44,153.043 137.107,153.376 136.5,153.5C 135.203,151.027 135.203,148.693 136.5,146.5 Z"/></g>
<g><path style="opacity:1" fill="#1a1a1a" d="M 67.5,160.5 C 68.388,157.946 68.7214,155.279 68.5,152.5C 68.81,151.262 69.31,151.262 70,152.5C 70.2382,156.222 70.7382,159.889 71.5,163.5C 68.5812,164.932 67.2479,163.932 67.5,160.5 Z"/></g>
<g><path style="opacity:1" fill="#848484" d="M 68.5,152.5 C 68.7214,155.279 68.388,157.946 67.5,160.5C 66.1667,161.5 64.8333,162.5 63.5,163.5C 65.9491,160.138 67.6158,156.471 68.5,152.5 Z"/></g>
<g><path style="opacity:1" fill="#1c1c1c" d="M 136.5,146.5 C 135.203,148.693 135.203,151.027 136.5,153.5C 137.107,153.376 137.44,153.043 137.5,152.5C 139.148,151.19 140.814,149.857 142.5,148.5C 143.833,149.833 143.833,151.167 142.5,152.5C 137.658,154.009 137.325,156.175 141.5,159C 143.275,160.439 145.275,161.439 147.5,162C 145.833,162.667 144.167,162.667 142.5,162C 140.667,160.167 138.833,158.333 137,156.5C 136.594,166.406 131.427,171.406 121.5,171.5C 116.056,170.892 111.056,171.558 106.5,173.5C 106.217,174.289 105.717,174.956 105,175.5C 103.683,169.175 99.8492,166.341 93.5,167C 92.703,170.745 92.203,174.579 92,178.5C 89,182.5 86,182.5 83,178.5C 82.7052,173.103 85.0385,169.103 90,166.5C 90.6667,164.5 90.6667,162.5 90,160.5C 85.4004,161.366 80.9004,162.866 76.5,165C 75.5363,160.934 75.203,156.767 75.5,152.5C 70.3706,152.281 70.3706,151.614 75.5,150.5C 76.1667,139.833 76.8333,139.833 77.5,150.5C 79.5273,150.338 81.5273,150.505 83.5,151C 76.8693,151.487 74.7026,154.987 77,161.5C 79.2672,162.935 81.2672,162.602 83,160.5C 83.1858,158.1 83.6858,155.766 84.5,153.5C 85.4656,155.396 85.7989,157.396 85.5,159.5C 87.3904,159.703 88.8904,159.037 90,157.5C 90.3333,155.5 90.6667,153.5 91,151.5C 91.414,151.043 91.914,150.709 92.5,150.5C 93.0959,155.449 93.0959,160.449 92.5,165.5C 95.6852,165.98 98.5185,165.314 101,163.5C 102.353,164.685 103.52,166.019 104.5,167.5C 106.387,156.224 105.387,145.224 101.5,134.5C 101.833,133.5 102.167,132.5 102.5,131.5C 107.082,134.912 110.748,139.078 113.5,144C 112.902,145.301 111.902,146.135 110.5,146.5C 109.106,144.275 107.94,141.942 107,139.5C 107.286,149.141 107.453,158.807 107.5,168.5C 115.472,170.138 123.305,169.805 131,167.5C 132.117,164.93 132.95,162.263 133.5,159.5C 133.284,157.616 132.617,155.949 131.5,154.5C 132.522,153.646 133.355,152.646 134,151.5C 134.169,144.144 134.669,136.811 135.5,129.5C 139.737,131.251 140.237,133.584 137,136.5C 136.502,139.817 136.335,143.15 136.5,146.5 Z"/></g>
<g><path style="opacity:1" fill="#787878" d="M 121.5,154.5 C 121.198,157.059 121.532,159.393 122.5,161.5C 122.44,162.043 122.107,162.376 121.5,162.5C 120.2,159.691 120.2,157.024 121.5,154.5 Z"/></g>
<g><path style="opacity:1" fill="#1a1a1a" d="M 115.5,151.5 C 116.812,152.145 117.812,153.145 118.5,154.5C 117.382,157.812 117.382,161.145 118.5,164.5C 116.052,164.915 114.719,163.915 114.5,161.5C 115.327,158.217 115.66,154.884 115.5,151.5 Z"/></g>
<g><path style="opacity:1" fill="#1c1c1c" d="M 122.5,161.5 C 121.532,159.393 121.198,157.059 121.5,154.5C 121.369,153.624 121.702,152.957 122.5,152.5C 123.251,153.376 123.751,154.376 124,155.5C 126.503,151.477 128.336,151.811 129.5,156.5C 128.598,159.287 128.265,161.953 128.5,164.5C 127.914,164.291 127.414,163.957 127,163.5C 127.329,153.941 125.829,153.274 122.5,161.5 Z"/></g>
<g><path style="opacity:1" fill="#323232" d="M 114.5,145.5 C 116.989,145.539 118.489,146.539 119,148.5C 116.448,149.487 114.948,148.487 114.5,145.5 Z"/></g>
<g><path style="opacity:1" fill="#4a4a4a" d="M 63.5,163.5 C 63.5,164.833 62.8333,165.5 61.5,165.5C 61.8333,164.5 62.5,163.833 63.5,163.5 Z"/></g>
<g><path style="opacity:1" fill="#ebebeb" d="M 89.5,168.5 C 91.0537,171.985 90.3871,175.152 87.5,178C 86.552,178.483 85.552,178.649 84.5,178.5C 84.0747,174.017 85.7413,170.683 89.5,168.5 Z"/></g>
<g><path style="opacity:1" fill="#4c4c4c" d="M 121.5,171.5 C 116.602,172.213 111.602,172.879 106.5,173.5C 111.056,171.558 116.056,170.892 121.5,171.5 Z"/></g>
</svg>
