<svg width="20" height="20" viewBox="0 0 20 20" fill="none" xmlns="http://www.w3.org/2000/svg">
<path d="M14.7559 6.49408C14.4305 6.16864 13.9028 6.16864 13.5774 6.49408C13.252 6.81951 13.252 7.34715 13.5774 7.67259L15.0715 9.16667H7.5C7.03976 9.16667 6.66666 9.53976 6.66666 10C6.66666 10.4602 7.03976 10.8333 7.5 10.8333H15.0715L13.5774 12.3274C13.252 12.6528 13.252 13.1805 13.5774 13.5059C13.9028 13.8314 14.4305 13.8314 14.7559 13.5059L17.0833 11.1785C17.7342 10.5276 17.7342 9.47236 17.0833 8.82149L14.7559 6.49408Z" fill="#DC2121"/>
<path fill-rule="evenodd" clip-rule="evenodd" d="M2.5 4.16675C2.5 2.78604 3.61929 1.66675 5 1.66675H10C11.3807 1.66675 12.5 2.78604 12.5 4.16675V5.00008C12.5 5.46032 12.1269 5.83341 11.6667 5.83341C11.2064 5.83341 10.8333 5.46032 10.8333 5.00008V4.16675C10.8333 3.70651 10.4602 3.33341 10 3.33341H5C4.53976 3.33341 4.16667 3.70651 4.16667 4.16675V15.8334C4.16667 16.2937 4.53976 16.6667 5 16.6667H10C10.4602 16.6667 10.8333 16.2937 10.8333 15.8334V15.0001C10.8333 14.5398 11.2064 14.1667 11.6667 14.1667C12.1269 14.1667 12.5 14.5398 12.5 15.0001V15.8334C12.5 17.2141 11.3807 18.3334 10 18.3334H5C3.61929 18.3334 2.5 17.2141 2.5 15.8334V4.16675Z" fill="#DC2121"/>
</svg>
